PathFileType	4	(X/Y/Z)	C:\Users\Willi\SynologyDrive\Deimel_MSc_Deadlift\Athlete_03\Athlete_3_22_07_06\dl_90\marker_experimental.trc
DataRate	CameraRate	NumFrames	NumMarkers	Units	OrigDataRate	OrigDataStartFrame	OrigNumFrames
200.000000	200.000000	4	59	mm	200.000000	4042	5390
Frame#	Time	BR			GLAB			RFHD			LFHD			C7			T6			SPINMOL			SPINM2			SPINM3			T12			BELTOL			BELT2			BELT3			SACROL			SACR2			SACR3			LTHOL			LTH2			LTH3			LSHAOL			LSHA2			LSHA3			LHEE			LTOE			LM5			RTHOL			RTH2			RTH3			RSHAOL			RSHA2			RSHA3			RHEE			RTOE			RM5			STRN			XIPH			LACR			LUAOL			LUA2			LUA3			LLAOL			LLA2			LLA3			LWRU			RACR			RUAOL			RUA2			RUA3			RLAOL			RLA2			RLA3			RWRU			BL			USERMO0			USERMO1			USERMO2			USERMO3			USERMO4			USERMO5			
		X1	Y1	Z1	X2	Y2	Z2	X3	Y3	Z3	X4	Y4	Z4	X5	Y5	Z5	X6	Y6	Z6	X7	Y7	Z7	X8	Y8	Z8	X9	Y9	Z9	X10	Y10	Z10	X11	Y11	Z11	X12	Y12	Z12	X13	Y13	Z13	X14	Y14	Z14	X15	Y15	Z15	X16	Y16	Z16	X17	Y17	Z17	X18	Y18	Z18	X19	Y19	Z19	X20	Y20	Z20	X21	Y21	Z21	X22	Y22	Z22	X23	Y23	Z23	X24	Y24	Z24	X25	Y25	Z25	X26	Y26	Z26	X27	Y27	Z27	X28	Y28	Z28	X29	Y29	Z29	X30	Y30	Z30	X31	Y31	Z31	X32	Y32	Z32	X33	Y33	Z33	X34	Y34	Z34	X35	Y35	Z35	X36	Y36	Z36	X37	Y37	Z37	X38	Y38	Z38	X39	Y39	Z39	X40	Y40	Z40	X41	Y41	Z41	X42	Y42	Z42	X43	Y43	Z43	X44	Y44	Z44	X45	Y45	Z45	X46	Y46	Z46	X47	Y47	Z47	X48	Y48	Z48	X49	Y49	Z49	X50	Y50	Z50	X51	Y51	Z51	X52	Y52	Z52	X53	Y53	Z53	X54	Y54	Z54	X55	Y55	Z55	X56	Y56	Z56	X57	Y57	Z57	X58	Y58	Z58	X59	Y59	Z59	

4043	20.21	242.9735870361328	599.21630859375	-81.17527008056636	308.8406677246094	1508.199951171875	-1175.3525390625	260.6244201660156	1541.669921875	-1098.86572265625	260.9686279296875	1544.740844726562	-1255.369506835938	66.99008941650391	1442.348510742188	-1181.055297851562	-30.06926536560059	1262.846923828125	-1192.218994140625	-42.19354629516602	1235.399047851562	-1195.521240234375	-56.64887237548828	1176.359497070312	-1143.244018554688	-52.23801040649414	1174.280517578125	-1192.66162109375	-50.52753067016602	1127.542846679688	-1195.151489257812	-73.30746459960938	1067.73291015625	-1198.352661132812	-65.54300689697266	1007.716430664063	-1146.36181640625	-69.13726043701172	1005.718200683594	-1196.327392578125	-58.14372253417969	952.7047119140626	-1215.683959960938	-49.43614196777344	962.3051147460939	-1165.991577148438	-76.74901580810547	903.0595703125001	-1176.014404296875	90.24423217773438	761.5151367187501	-1419.696655273438	63.3947639465332	688.3929443359376	-1400.310302734375	104.4735641479492	701.7267456054689	-1427.013671875	113.7806015014648	348.821990966797	-1451.109008789062	75.58140563964844	280.930633544922	-1438.880493164062	122.0859146118164	287.670867919922	-1450.358764648438	47.14358139038086	69.4198532104493	-1375.666015625	254.7597198486328	73.49246978759774	-1394.471435546875	207.6640014648438	52.14579772949228	-1500.100830078125	83.22638702392578	733.3731079101564	-978.8450927734375	134.1200561523438	679.3798217773439	-949.2322998046875	92.31884765625	671.9286499023439	-975.6708374023438	93.06404876708984	339.7975158691407	-965.2596435546875	138.0907287597656	272.7665710449219	-960.8780517578125	89.66996765136719	279.3710937500001	-976.4645385742188	57.00138473510742	67.70122528076179	-1067.350341796875	261.8808288574219	67.59174346923834	-1032.072021484375	209.0746307373047	64.62803649902349	-934.9364013671875	199.5599060058594	1338.618041992188	-1190.235107421875	238.8914794921875	1186.8203125	-1194.331176757812	138.9384307861328	1334.708374023438	-1397.706176757812	147.5383911132812	1183.82177734375	-1458.589599609375	128.3134460449219	1122.8935546875	-1472.943725585938	178.1277008056641	1126.332397460938	-1459.950439453125	233.3279724121094	906.5845336914064	-1454.0830078125	229.4011535644531	841.7416381835939	-1463.414916992188	255.6419219970703	854.7002563476564	-1423.21337890625	258.65966796875	755.2633056640626	-1441.424682617188	147.4240112304688	1322.372680664062	-987.3836059570311	180.3941345214844	1141.380493164062	-953.9423217773436	209.6852569580078	1088.330078125	-980.1963500976561	184.7744140625	1076.887329101562	-937.9800415039061	241.1922149658203	885.6239624023439	-953.956298828125	262.6134643554688	836.6708374023439	-989.6309204101562	246.6716461181641	822.7087402343751	-943.1923828125	256.6435546875	746.6823730468751	-947.131591796875	220.9982147216797	633.1274414062501	-2302.9609375	0.07487460225820541	0.01290709991008045	-0.2241619974374771	0.02802390046417713	0.4078409969806671	-0.2071460038423538	0.1333989948034286	0.08676180243492128	-0.2207120060920715	0.1039400026202202	1.916980028152466	-2.096560001373291	2.01882004737854	2.993669986724854	-1.947389960289001	2.795180082321167	0	0	
4044	20.215	243.3000640869141	599.5582885742188	-81.19336700439449	308.2597961425781	1508.738647460938	-1175.47265625	260.0484924316406	1542.164672851562	-1098.961059570312	260.29541015625	1545.218505859375	-1255.466552734375	66.45343017578125	1442.562377929688	-1181.027587890625	-30.22236442565918	1262.78564453125	-1192.151489257812	-42.27698135375977	1235.297973632812	-1195.459106445312	-56.59529113769531	1176.231811523438	-1143.172729492188	-52.16082763671875	1174.15478515625	-1192.5869140625	-50.32169723510742	1127.4384765625	-1195.0673828125	-72.9593505859375	1067.6689453125	-1198.254150390625	-65.08189392089844	1007.674926757813	-1146.2568359375	-68.69712829589844	1005.660217285156	-1196.221313476562	-57.71150588989258	952.8440551757814	-1215.581909179688	-48.97716903686523	962.4462890625001	-1165.892578125	-76.36025238037109	903.2294921875001	-1175.8955078125	90.46115112304688	761.6165161132814	-1419.616088867188	63.52289199829102	688.5377197265626	-1400.191650390625	104.635856628418	701.7890625000001	-1426.889892578125	113.6823883056641	348.8625793457032	-1450.963256835938	75.50559234619141	280.957977294922	-1438.7353515625	122.0088882446289	287.7127685546876	-1450.244506835938	47.15389251708984	69.42601776123055	-1375.656860351562	254.7625427246094	73.49867248535165	-1394.474365234375	207.6622619628906	52.14346694946298	-1500.10009765625	83.4915771484375	733.5074462890626	-978.826171875	134.3233032226562	679.4202270507814	-949.2793579101562	92.49281311035156	672.0434570312501	-975.6929931640625	92.97057342529297	339.8453063964844	-965.360595703125	138.0286560058594	272.8153076171876	-960.9537353515625	89.60226440429688	279.4239501953126	-976.544921875	57.00323867797852	67.70122528076179	-1067.350463867188	261.8843078613281	67.59305572509771	-1032.070922851562	209.0749664306641	64.62495422363287	-934.9340209960938	199.208251953125	1339.059326171875	-1190.25048828125	238.8840942382812	1187.360595703125	-1194.365600585938	138.4353942871094	1335.056274414062	-1397.711547851562	147.1144561767578	1184.182006835938	-1458.619262695312	127.9331359863281	1123.242309570312	-1472.938110351562	177.7661895751953	1126.729736328125	-1460.022583007812	233.1626892089844	907.0029296875001	-1454.1455078125	229.2929534912109	842.1638183593751	-1463.47021484375	255.5457763671875	855.1477050781251	-1423.284301757812	258.6135864257812	755.7044067382814	-1441.465942382812	147.1207885742188	1322.743408203125	-987.3806762695311	180.2956695556641	1141.79150390625	-953.9251098632811	209.6341552734375	1088.779418945312	-980.1953124999999	184.7450103759766	1077.305419921875	-937.9752807617186	241.2773895263672	886.0387573242189	-953.9739990234375	262.6978149414062	837.0963745117189	-989.6631469726562	246.7791442871094	823.1222534179689	-943.2154541015625	256.75634765625	747.0850830078126	-947.1450805664062	220.741455078125	633.6071166992189	-2302.966552734375	0.07265190035104752	0.01285079959779979	-0.2221309989690781	0.02839170023798943	0.4093089997768402	-0.205363005399704	0.133545994758606	0.08734419941902162	-0.2195550054311752	0.1016170009970665	1.918589949607849	-2.098700046539307	2.018939971923828	2.994729995727539	-1.949779987335205	2.794569969177246	0	0	
4045	20.22	243.6305541992188	599.9033203125	-81.21302795410152	307.6716613769531	1509.272827148438	-1175.596557617188	259.4678039550781	1542.65283203125	-1099.05908203125	259.6141967773438	1545.693237304688	-1255.565551757812	65.91156005859375	1442.770263671875	-1181.001220703125	-30.37923431396484	1262.719360351562	-1192.086303710938	-42.36392974853516	1235.192138671875	-1195.3994140625	-56.5457763671875	1176.098266601562	-1143.104248046875	-52.08644866943359	1174.023803710938	-1192.515258789062	-50.11917877197266	1127.329467773438	-1194.986450195312	-72.61549377441406	1067.601440429688	-1198.159301757812	-64.6253662109375	1007.629516601563	-1146.15478515625	-68.26128387451172	1005.598571777344	-1196.1181640625	-57.27958297729492	952.9769287109376	-1215.483032226562	-48.52281951904297	962.5838623046876	-1165.796630859375	-75.974609375	903.3951416015626	-1175.779296875	90.6806640625	761.7144775390626	-1419.538208007812	63.656982421875	688.6781616210939	-1400.07568359375	104.8030471801758	701.8478393554689	-1426.769287109375	113.5924530029297	348.9036865234376	-1450.82177734375	75.43281555175781	280.9885864257814	-1438.597412109375	121.9375686645508	287.7550048828126	-1450.135009765625	47.16475677490234	69.43307495117196	-1375.647216796875	254.765625	73.50452423095712	-1394.477172851562	207.6617279052734	52.14184188842783	-1500.1005859375	83.75281524658203	733.6404418945314	-978.8052978515625	134.5249328613281	679.4607543945314	-949.3265991210938	92.66413879394531	672.1574707031251	-975.712890625	92.87570953369141	339.8912048339844	-965.4603271484375	137.9655456542969	272.8619079589844	-961.0282592773438	89.53317260742188	279.4749145507813	-976.6240234375	57.00442504882812	67.69943237304695	-1067.349853515625	261.8872375488281	67.59464263916021	-1032.069702148438	209.0748291015625	64.62189483642584	-934.9310302734375	198.8515625	1339.495971679688	-1190.2685546875	238.873046875	1187.897338867188	-1194.3984375	137.9230804443359	1335.39794921875	-1397.719360351562	146.6824493408203	1184.537109375	-1458.649780273438	127.5459518432617	1123.58642578125	-1472.934814453125	177.3975372314453	1127.123413085938	-1460.09765625	232.9959259033203	907.4166870117189	-1454.207641601562	229.1849822998047	842.5826416015626	-1463.527221679688	255.4484100341797	855.5913085937501	-1423.35546875	258.5671691894531	756.1419677734376	-1441.509521484375	146.8085784912109	1323.106689453125	-987.3778076171874	180.1828460693359	1142.193969726562	-953.9047241210936	209.5713958740234	1089.221435546875	-980.1869506835936	184.6995849609375	1077.715942382812	-937.9658813476561	241.3520660400391	886.4472045898439	-953.9896240234375	262.7764282226562	837.5173950195314	-989.6929931640625	246.8818511962891	823.5298461914064	-943.23779296875	256.8643188476562	747.4830322265626	-947.1572265625	220.4867553710938	634.0870971679689	-2302.974609375	0.0704009011387825	0.01283419970422985	-0.2191219925880432	0.02860789932310581	0.4090250134468079	-0.2028319984674453	0.1337960064411163	0.08808639645576478	-0.2183090001344681	0.09958650171756744	1.925899982452393	-2.100310087203979	2.019239902496338	2.995650053024292	-1.952600002288818	2.793819904327393	0	0	
4046	20.225	243.9656982421875	600.2514038085938	-81.23423767089839	307.0758972167969	1509.801513671875	-1175.7216796875	258.88134765625	1543.134033203125	-1099.15771484375	258.9258422851562	1546.164306640625	-1255.664672851562	65.36358642578125	1442.97265625	-1180.9765625	-30.54046249389648	1262.648071289062	-1192.023681640625	-42.4548454284668	1235.081665039062	-1195.342651367188	-56.50056076049805	1175.95947265625	-1143.038696289062	-52.01523971557617	1173.8876953125	-1192.446899414062	-49.92026519775391	1127.216064453125	-1194.909057617188	-72.27633666992188	1067.53076171875	-1198.068237304688	-64.17388153076172	1007.580749511719	-1146.055908203125	-67.83029174804688	1005.533996582031	-1196.01806640625	-56.84821319580078	953.1040039062501	-1215.387084960938	-48.07356643676758	962.7186279296876	-1165.70361328125	-75.59206390380859	903.5570068359376	-1175.665893554688	90.90050506591797	761.8091430664064	-1419.461791992188	63.79480361938477	688.8141479492189	-1399.960815429688	104.9726486206055	701.9036254882814	-1426.650634765625	113.5099182128906	348.945281982422	-1450.68359375	75.36170959472656	281.0228881835939	-1438.46630859375	121.8714141845703	287.7976074218751	-1450.029418945312	47.17625427246094	69.44097900390634	-1375.636840820312	254.7690887451172	73.50985717773446	-1394.47998046875	207.6623992919922	52.14116287231455	-1500.10205078125	84.01009368896484	733.7722167968751	-978.7821044921875	134.7245483398438	679.5012817382814	-949.3736572265625	92.83245849609375	672.2709350585939	-975.7303466796875	92.77851104736328	339.9352722167969	-965.5584106445312	137.9003295898438	272.9064941406251	-961.1012573242188	89.46174621582031	279.5240783691407	-976.7014770507812	57.00490951538086	67.69589233398445	-1067.348388671875	261.8895263671875	67.59645843505865	-1032.068237304688	209.07421875	64.61879730224615	-934.9274291992188	198.4892425537109	1339.928955078125	-1190.288940429688	238.8577270507812	1188.431762695312	-1194.430786132812	137.4019927978516	1335.734375	-1397.729614257812	146.2454986572266	1184.888427734375	-1458.680908203125	127.1562118530273	1123.92724609375	-1472.9345703125	177.0259399414062	1127.5146484375	-1460.17431640625	232.8315582275391	907.8270874023439	-1454.267456054688	229.0794982910156	842.9989624023439	-1463.584594726562	255.3510894775391	856.0313110351564	-1423.424438476562	258.5210571289062	756.5760498046876	-1441.554565429688	146.4860992431641	1323.463745117188	-987.3749999999999	180.0558013916016	1142.588500976562	-953.8817138671874	209.4971160888672	1089.656372070312	-980.1727905273436	184.6383972167969	1078.119140625	-937.9532470703124	241.4162445068359	886.8498535156251	-954.0044555664062	262.8495178222656	837.9340820312501	-989.7216186523438	246.9798431396484	823.9322509765626	-943.260498046875	256.967529296875	747.8766479492189	-947.168701171875	220.2346954345703	634.5672607421876	-2302.98486328125	0.06822650134563446	0.0128514999523759	-0.21527199447155	0.0286737997084856	0.407397985458374	-0.1996030062437057	0.1341399997472763	0.08873429894447328	-0.2169010043144226	0.0979330986738205	1.937909960746765	-2.101300001144409	2.01980996131897	2.996429920196533	-1.955700039863586	2.792880058288574	0	0	
